<?xml version="1.0" encoding="utf-8"?>
<!-- Generator: Adobe Illustrator 27.5.0, SVG Export Plug-In . SVG Version: 6.00 Build 0)  -->
<svg version="1.1" id="Capa_2" xmlns="http://www.w3.org/2000/svg" xmlns:xlink="http://www.w3.org/1999/xlink" x="0px" y="0px"
	 viewBox="0 0 2122 2122" style="enable-background:new 0 0 2122 2122;" xml:space="preserve">
<path style="fill:#016366;" d="M1063.191,1847.537c-167.28,0-310.104-20.04-367.216-48.294l-2.244,33.936v0.001
	c0,38.924,164.28,70.479,366.929,70.479c202.649,0,366.928-31.554,366.928-70.479c0-2.496-0.698-4.96-2.015-7.389l-1.517-23.583
	C1363.186,1828.89,1224.561,1847.537,1063.191,1847.537z"/>
<path style="fill:#F49E82;" d="M1937.104,1039.726c25.233-58.58,37.498-104.401,27.973-109.012
	c-9.455-4.577-37.445,32.878-67.492,88.339c14.387-55.237,18.862-96.236,9.494-99.28c-9.879-3.21-32.111,36.758-54.081,94.729
	c4.404-55.158,1.713-96.167-7.41-97.308c-8.609-1.077-20.41,33.661-29.541,83.408c-51.117-23.396-97.341-26.762-109.424-5.833
	c-0.272,0.471-0.488,0.966-0.722,1.453l-0.257-0.134l-88.67,172.811l-10.556,20.574l-24.305,47.368
	c1.882,1.839,2.804,4.667,1.25,7.649c-24.605,47.186-51.697,93.027-81.168,137.338c-4.581,6.888-15.751,0.421-11.14-6.511
	c29.471-44.311,56.564-90.152,81.168-137.339c0.696-1.334,1.633-2.199,2.673-2.7l-9.003-31.743l-141.752,49.189
	c0.048,0.729,0.096,1.459,0.145,2.188c0.141,2.138-0.618,3.711-1.819,4.743l14.4,223.794l16.52,58.245
	c11.705,41.267,47.629,69.015,87.981,72.451c40.117,4.39,80.601-15.759,100.122-53.805l159.365-452.473
	c57.13,30.291,111.936,36.701,125.258,13.625l0.236-0.476l0.183,0.152c54.094-65.004,89.945-124.358,80.076-132.57
	C1999.656,982.812,1971.845,1003.984,1937.104,1039.726z"/>
<path style="fill:#D45D3D;" d="M1574.898,1235.279c-1.04,0.501-1.978,1.366-2.673,2.7c-24.604,47.186-51.697,93.028-81.168,137.339
	c-4.611,6.932,6.559,13.4,11.14,6.511c29.471-44.311,56.563-90.152,81.168-137.338c1.555-2.982,0.632-5.809-1.25-7.649
	C1580.195,1234.965,1577.278,1234.131,1574.898,1235.279z"/>
<path style="fill:#F49E82;" d="M697.033,1254.913c0.048-0.729,0.096-1.459,0.145-2.188l-141.752-49.189l-9.004,31.744
	c1.041,0.501,1.979,1.366,2.674,2.699c24.604,47.186,51.697,93.028,81.167,137.339c4.616,6.939-6.563,13.392-11.139,6.511
	c-29.471-44.311-56.563-90.152-81.168-137.338c-1.556-2.984-0.633-5.812,1.249-7.649l-24.304-47.367l-10.556-20.574l-88.669-172.811
	l-0.257,0.134c-0.233-0.487-0.451-0.983-0.722-1.453c-12.083-20.929-58.307-17.563-109.424,5.832
	c-9.131-49.747-20.932-84.484-29.541-83.407c-9.122,1.141-11.814,42.148-7.411,97.306c-21.97-57.97-44.201-97.937-54.08-94.727
	c-9.368,3.044-4.893,44.043,9.494,99.28c-30.047-55.461-58.036-92.916-67.492-88.339c-9.525,4.611,2.74,50.432,27.973,109.013
	c-34.741-35.742-62.552-56.915-69.506-51.128c-9.869,8.212,25.982,67.566,80.076,132.57l0.183-0.152l0.236,0.476
	c13.323,23.076,68.128,16.666,125.259-13.625l146.827,416.877c-0.643,36.783,23.277,70.853,60.34,81.366l1.477,0.419
	c7.969,3.454,16.382,5.781,24.984,7.086l6.528,1.851c44.159,12.525,90.109-13.119,102.634-57.278l26.312-92.768l13.508-204.303
	C699.848,1261.121,696.759,1259.057,697.033,1254.913z"/>
<path style="fill:#3BB392;" d="M1411.386,1254.913c-0.679-10.271-1.358-20.543-2.037-30.815c-2.973-44.965-5.947-89.93-8.92-134.895
	c-1.866-28.234-3.733-56.467-5.6-84.701c-0.549-8.302,12.356-8.241,12.901,0c0.679,10.271,1.358,20.543,2.037,30.815
	c2.973,44.965,5.946,89.93,8.919,134.895c1.818,27.504,3.637,55.008,5.455,82.513l141.752-49.189l40.525-14.062l10.556-20.574
	l-104.729-273.827c-21.999-63.397-91.225-96.957-154.622-74.957c-3.943,1.368-7.709,2.849-11.307,4.439
	c-37.664,12.382-94.72,39.777-163.3,57.03l5.312,30.067l-0.066,0.016c0.291,1.408,0.533,2.823,0.533,4.262
	c0,27.995-56.235,50.689-125.605,50.689c-69.369,0-125.604-22.694-125.604-50.689c0-1.439,0.242-2.854,0.534-4.262l-0.067-0.016
	l5.74-32.489c-11.233-2.939-22.2-6.091-32.826-9.398c0.31,0.996,0.409,2.107,0.148,3.344c-7.314,34.728-7.253,75.833,19.811,102.534
	c22.295,21.998,57.405,25.576,87.094,27.243c34.65,1.946,69.498-1.038,103.268-9.061c29.021-6.895,58.906-17.393,80.422-38.955
	c20.011-20.053,30.389-50.687,19.201-77.74c-3.176-7.678,9.312-10.993,12.44-3.43c13.761,33.273-1.343,71.652-27.057,94.577
	c-25.508,22.742-59.377,33.588-92.258,40.357c-37.872,7.798-76.956,9.778-115.397,5.535c-32.897-3.63-66.34-12.542-86.486-40.9
	c-21.397-30.12-20.775-68.941-13.478-103.591c0.305-1.448,0.959-2.513,1.804-3.264c-61.862-20.109-111.754-43.488-140.986-47.638
	c-62.225-19.133-128.907,14.297-150.421,76.297L504.345,1168.9l10.556,20.574l40.524,14.062l141.752,49.189
	c0.631-9.543,1.262-19.085,1.893-28.627c2.973-44.965,5.946-89.93,8.919-134.895c1.866-28.234,3.734-56.467,5.6-84.701
	c0.546-8.255,13.449-8.289,12.901,0c-0.68,10.271-1.359,20.543-2.038,30.815c-2.973,44.965-5.946,89.93-8.919,134.895
	c-1.866,28.233-3.734,56.467-5.6,84.701c-0.273,4.128-3.635,6.2-6.86,6.204l-13.508,204.303l-20.262,306.459v0.001
	c0,9.653,9.514,18.875,26.673,27.364c57.111,28.254,199.935,48.294,367.216,48.294c161.369,0,299.994-18.647,360.865-45.328
	c21.188-9.287,33.025-19.541,33.025-30.329c0-2.679-0.749-5.325-2.164-7.932l-18.049-280.498l-14.4-223.794
	C1419.001,1262.631,1411.791,1261.032,1411.386,1254.913z M835.136,1364.541c39.116-7.466,77.703-17.557,115.448-30.255
	c67.283-22.636,131.735-53.489,191.7-91.476c59.703-37.82,114.693-82.771,163.612-133.779c5.76-6.006,14.87,3.129,9.122,9.122
	c-28.051,29.25-58.085,56.558-89.904,81.662c-56.061,44.231-117.243,81.808-182.148,111.601
	c-65.228,29.941-133.893,52.108-204.4,65.565C830.439,1378.532,826.99,1366.096,835.136,1364.541z M779.612,1541.568
	c38.093,8.555,76.781,14.123,115.748,16.557c136.951,8.551,275.799-20.289,397.451-83.927c7.356-3.848,13.871,7.29,6.512,11.14
	c-34.917,18.266-71.243,33.83-108.569,46.47c-132.818,44.977-277.735,52.933-414.573,22.201
	C768.072,1552.187,771.525,1539.752,779.612,1541.568z"/>
<path style="fill:#F49E82;" d="M938.121,911.668c-0.291,1.408-0.534,2.823-0.534,4.262c0,27.995,56.235,50.689,125.604,50.689
	c69.37,0,125.605-22.694,125.605-50.689c0-1.439-0.242-2.854-0.533-4.262l0.066-0.016l-5.312-30.067l-16.968-96.037
	c41.814-25.81,66.642-69.784,79.852-124.306c17.479,17.254,45.765,17.394,76.141,8.64c41.074-11.837,70.357-35.364,58.52-76.438
	c-11.838-41.074-48.778-44.117-89.853-32.279c-12.347,3.558-23.626,8.08-33.093,13.747l-0.01,0.041l-0.02-0.025l-0.012,0.007
	l0.001-0.021c-48.47-58.895-56.639-121.737-56.321-159.045c-20.046-0.632-38.418-7.839-52.982-19.633
	c-20.091,24.744-50.725,40.58-85.082,40.58c-34.357,0-64.991-15.836-85.082-40.58c-14.536,11.772-32.869,18.972-52.872,19.627
	c0.318,37.307-7.848,100.152-56.32,159.049l0.005,0.088c-9.498-5.711-20.836-10.258-33.249-13.836
	c-41.075-11.839-78.015-8.796-89.852,32.279c-11.838,41.075,17.445,64.601,58.52,76.438c30.922,8.912,59.701,8.642,77.094-9.552
	c13.293,51.468,37.284,93.601,75.646,120.064c1.811-1.375,4.272-1.885,6.847-0.533c39.874,20.94,86.286,27.904,130.535,19.412
	c8.126-1.559,11.575,10.878,3.429,12.441c-47.137,9.046-95.995,2.089-138.68-19.818l-15.419,87.267l-5.74,32.489L938.121,911.668z
	 M1268.957,619.313c19.848-18.75,46.039-29.691,73.323-30.666c8.317-0.298,8.278,12.605,0,12.901
	c-8.761,0.313-17.41,1.839-25.714,4.43c5.572,7.104,8.729,16.122,8.734,25.134c0.002,3.617-2.957,6.294-6.45,6.45
	c-3.485,0.157-6.448-3.077-6.451-6.45c-0.001-1.156-0.076-2.301-0.179-3.451l-0.058-0.495l-0.049-0.299
	c-0.097-0.542-0.207-1.082-0.331-1.619c-0.262-1.142-0.582-2.269-0.959-3.378c-0.181-0.533-0.39-1.054-0.586-1.581l-0.236-0.517
	c-0.266-0.564-3.365-6.384-3.742-6.175c-0.009,0.004,0.912,1.123,0.24,0.333l-0.532-0.633c-0.404-0.47-0.822-0.927-1.252-1.373
	l-0.942-0.877c-9.371,4.421-18.102,10.216-25.695,17.389C1272.044,634.137,1262.909,625.027,1268.957,619.313z M848.304,628.436
	c-7.59-7.171-16.319-12.966-25.688-17.386l-1.092,1.023c-0.427,0.449-0.841,0.911-1.242,1.382l-0.386,0.465
	c-1.328,1.863-2.534,3.778-3.513,5.853l-0.148,0.326l-0.203,0.49c-0.185,0.49-0.371,0.98-0.536,1.477
	c-0.37,1.11-0.686,2.24-0.94,3.383c-0.12,0.538-0.228,1.079-0.321,1.621l-0.13,0.816l0.049-0.227l0.003-0.053
	c0.045-0.433,0.275-1.193-0.003,0.053c-0.115,1.149-0.168,2.299-0.168,3.453c-0.003,3.617-2.954,6.294-6.451,6.45
	c-3.482,0.156-6.452-3.076-6.45-6.45c0.005-9.012,3.162-18.029,8.734-25.134c-8.304-2.591-16.953-4.117-25.715-4.43
	c-8.291-0.297-8.303-13.198,0-12.901c27.285,0.975,53.475,11.915,73.324,30.666C863.477,625.029,854.337,634.135,848.304,628.436z
	 M1225.17,614.667c0,23.528-19.073,42.6-42.599,42.6c-23.527,0-42.599-19.072-42.599-42.6c0-23.527,19.072-42.599,42.599-42.599
	C1206.097,572.067,1225.17,591.14,1225.17,614.667z M1126.802,572.039c-7.273,0-13.169-9.512-13.169-21.245
	c0-11.733,5.896-21.245,13.169-21.245c7.273,0,13.169,9.512,13.169,21.245C1139.971,562.527,1134.074,572.039,1126.802,572.039z
	 M1097.866,496.619c5.654-12.647,18.728-21.201,32.466-21.949c14.062-0.766,27.989,7.447,34.699,19.693
	c3.995,7.292-7.149,13.794-11.14,6.511c-4.711-8.598-13.952-13.827-23.559-13.303c-9.2,0.501-17.488,6.974-21.327,15.56
	c-1.429,3.196-6.072,3.925-8.825,2.314C1096.945,503.554,1096.445,499.798,1097.866,496.619z M1107.236,648.539
	c13.405-0.195,26.118,7.182,33.172,18.449c4.423,7.065-6.744,13.532-11.14,6.512c-4.736-7.564-13.38-12.195-22.032-12.06
	c-8.673,0.136-17.063,5.24-21.541,12.916c-4.186,7.175-15.332,0.674-11.14-6.512
	C1081.259,656.353,1093.873,648.733,1107.236,648.539z M1055.396,556.01c0.548-8.254,13.451-8.289,12.901,0
	c-0.682,10.268-2.653,20.319-6.69,29.812c-3.928,9.24-9.759,16.616-16.792,23.676c-5.853,5.874-10.994,13.029-3.649,20.102
	c7.284,7.013,18.594,4.573,27.154,1.742c7.914-2.617,11.275,9.846,3.429,12.44c-11.44,3.783-25.111,5.378-35.638-1.779
	c-9.203-6.257-14.423-17.653-10.094-28.403c4.098-10.176,14.202-16.095,19.868-25.268
	C1051.88,578.631,1054.646,567.302,1055.396,556.01z M986.413,550.794c0-11.733,5.896-21.245,13.169-21.245
	s13.17,9.512,13.17,21.245c0,11.733-5.897,21.245-13.17,21.245S986.413,562.527,986.413,550.794z M960.365,496.619
	c5.654-12.647,18.728-21.201,32.466-21.949c14.062-0.766,27.989,7.447,34.699,19.693c3.995,7.292-7.149,13.794-11.14,6.511
	c-4.711-8.598-13.951-13.827-23.559-13.303c-9.201,0.501-17.489,6.974-21.327,15.56c-1.428,3.196-6.071,3.925-8.826,2.314
	C959.445,503.554,958.945,499.798,960.365,496.619z M949,657.266c-23.527,0-42.599-19.072-42.599-42.6
	c0-23.527,19.073-42.599,42.599-42.599c23.527,0,42.6,19.073,42.6,42.599C991.6,638.194,972.528,657.266,949,657.266z"/>
<path style="fill:#D45D3D;" d="M784.102,588.647c-8.303-0.297-8.291,12.604,0,12.901c8.762,0.313,17.411,1.839,25.715,4.43
	c-5.572,7.104-8.729,16.122-8.734,25.134c-0.002,3.375,2.968,6.607,6.45,6.45c3.496-0.156,6.448-2.834,6.451-6.45
	c0-1.154,0.053-2.304,0.168-3.453l-0.049,0.227l0.13-0.816c0.094-0.542,0.202-1.083,0.321-1.621c0.254-1.142,0.57-2.272,0.94-3.383
	c0.166-0.497,0.352-0.987,0.536-1.477l-0.076,0.124l0.157-0.345l0.018-0.05l0.104-0.219l0.148-0.326
	c0.979-2.075,2.186-3.99,3.513-5.853l0.386-0.465c0.402-0.471,0.815-0.933,1.242-1.382l1.092-1.023
	c9.369,4.421,18.098,10.216,25.688,17.386c6.033,5.699,15.173-3.407,9.122-9.123C837.577,600.562,811.387,589.622,784.102,588.647z"
	/>
<path style="fill:#D45D3D;" d="M1278.079,628.436c7.593-7.172,16.324-12.968,25.695-17.389l0.942,0.877
	c0.43,0.446,0.848,0.903,1.252,1.373l0.532,0.633c0.672,0.791-0.25-0.328-0.24-0.333c0.377-0.21,3.476,5.611,3.742,6.175
	l0.236,0.517c0.197,0.526,0.405,1.048,0.586,1.581c0.377,1.109,0.697,2.237,0.959,3.378c0.124,0.537,0.234,1.077,0.331,1.619
	l0.049,0.299l0.045,0.234l0.003,0.057l0.07,0.429l-0.059-0.224c0.103,1.15,0.178,2.295,0.179,3.451
	c0.002,3.374,2.966,6.607,6.451,6.45c3.493-0.156,6.452-2.834,6.45-6.45c-0.005-9.012-3.162-18.029-8.734-25.134
	c8.304-2.591,16.953-4.117,25.714-4.43c8.278-0.296,8.317-13.199,0-12.901c-27.284,0.975-53.475,11.916-73.323,30.666
	C1262.909,625.027,1272.044,634.137,1278.079,628.436z"/>
<path style="fill:#7A1E0F;" d="M1012.751,550.794c0-11.733-5.897-21.245-13.17-21.245s-13.169,9.512-13.169,21.245
	c0,11.733,5.896,21.245,13.169,21.245S1012.751,562.527,1012.751,550.794z"/>
<path style="fill:#7A1E0F;" d="M1126.802,529.55c-7.273,0-13.169,9.512-13.169,21.245c0,11.733,5.896,21.245,13.169,21.245
	c7.273,0,13.169-9.512,13.169-21.245C1139.971,539.061,1134.074,529.55,1126.802,529.55z"/>
<path style="fill:#D45D3D;" d="M1036.112,642.002c10.526,7.157,24.198,5.562,35.638,1.779c7.845-2.594,4.485-15.057-3.429-12.44
	c-8.561,2.831-19.87,5.271-27.154-1.742c-7.345-7.072-2.204-14.228,3.649-20.102c7.033-7.06,12.864-14.436,16.792-23.676
	c4.037-9.493,6.008-19.544,6.69-29.812c0.551-8.289-12.352-8.254-12.901,0c-0.75,11.292-3.516,22.621-9.51,32.322
	c-5.667,9.172-15.77,15.091-19.868,25.268C1021.689,624.349,1026.909,635.745,1036.112,642.002z"/>
<path style="fill:#D45D3D;" d="M1085.695,674.355c4.478-7.676,12.868-12.78,21.541-12.916c8.653-0.135,17.297,4.496,22.032,12.06
	c4.396,7.021,15.563,0.553,11.14-6.512c-7.054-11.267-19.767-18.643-33.172-18.449c-13.363,0.194-25.977,7.814-32.681,19.305
	C1070.363,675.029,1081.509,681.531,1085.695,674.355z"/>
<path style="fill:#D45D3D;" d="M1097.893,811.714c8.145-1.563,4.696-14-3.429-12.441c-44.249,8.492-90.661,1.528-130.535-19.412
	c-2.575-1.353-5.036-0.842-6.847,0.533c-3.353,2.544-4.444,8.097,0.336,10.607c0.593,0.311,1.2,0.589,1.796,0.895
	C1001.897,813.804,1050.756,820.76,1097.893,811.714z"/>
<path style="fill:#F08383;" d="M991.6,614.667c0-23.527-19.073-42.599-42.6-42.599c-23.527,0-42.599,19.073-42.599,42.599
	c0,23.528,19.073,42.6,42.599,42.6C972.528,657.266,991.6,638.194,991.6,614.667z"/>
<path style="fill:#F08383;" d="M1139.971,614.667c0,23.528,19.072,42.6,42.599,42.6c23.527,0,42.599-19.072,42.599-42.6
	c0-23.527-19.073-42.599-42.599-42.599C1159.043,572.067,1139.971,591.14,1139.971,614.667z"/>
<path style="fill:#8ECCB9;" d="M703.074,1261.117c3.225-0.004,6.588-2.076,6.86-6.204c1.866-28.234,3.734-56.468,5.6-84.701
	c2.973-44.965,5.946-89.93,8.919-134.895c0.679-10.272,1.358-20.544,2.038-30.815c0.548-8.289-12.355-8.255-12.901,0
	c-1.866,28.234-3.734,56.467-5.6,84.701c-2.973,44.965-5.946,89.93-8.919,134.895c-0.631,9.542-1.262,19.084-1.893,28.627
	c-0.048,0.729-0.096,1.459-0.145,2.188C696.759,1259.057,699.848,1261.121,703.074,1261.117z"/>
<path style="fill:#8ECCB9;" d="M912.154,973.269c20.146,28.358,53.59,37.27,86.486,40.9c38.442,4.242,77.525,2.263,115.397-5.535
	c32.88-6.769,66.749-17.615,92.258-40.357c25.714-22.924,40.817-61.303,27.057-94.577c-3.128-7.564-15.616-4.249-12.44,3.43
	c11.188,27.053,0.81,57.687-19.201,77.74c-21.516,21.562-51.401,32.06-80.422,38.955c-33.77,8.023-68.618,11.007-103.268,9.061
	c-29.689-1.667-64.799-5.245-87.094-27.243c-27.063-26.701-27.125-67.806-19.811-102.534c0.26-1.236,0.162-2.348-0.148-3.344
	c-1.36-4.365-7.314-6.178-10.488-3.351c-0.845,0.752-1.499,1.817-1.804,3.264C891.379,904.328,890.757,943.149,912.154,973.269z"/>
<path style="fill:#D45D3D;" d="M539.205,1236.841c-1.882,1.837-2.805,4.665-1.249,7.649c24.605,47.186,51.697,93.027,81.168,137.338
	c4.576,6.881,15.755,0.428,11.139-6.511c-29.47-44.311-56.563-90.152-81.167-137.339c-0.695-1.333-1.633-2.198-2.674-2.699
	C544.042,1234.135,541.126,1234.966,539.205,1236.841z"/>
<path style="fill:#8ECCB9;" d="M1409.768,1035.317c-0.679-10.272-1.358-20.544-2.037-30.815c-0.545-8.241-13.45-8.302-12.901,0
	c1.866,28.234,3.733,56.467,5.6,84.701c2.973,44.965,5.946,89.93,8.92,134.895c0.679,10.272,1.358,20.544,2.037,30.815
	c0.405,6.119,7.615,7.719,11.082,4.743c1.202-1.032,1.961-2.605,1.819-4.743c-0.048-0.729-0.097-1.459-0.145-2.188
	c-1.818-27.505-3.637-55.009-5.455-82.513C1415.714,1125.246,1412.741,1080.282,1409.768,1035.317z"/>
<path style="fill:#8ECCB9;" d="M838.565,1376.981c70.507-13.457,139.172-35.624,204.4-65.565
	c64.905-29.793,126.088-67.37,182.148-111.601c31.819-25.104,61.853-52.412,89.904-81.662c5.748-5.993-3.362-15.129-9.122-9.122
	c-48.919,51.008-103.909,95.959-163.612,133.779c-59.965,37.987-124.417,68.84-191.7,91.476
	c-37.745,12.699-76.331,22.789-115.448,30.255C826.99,1366.096,830.439,1378.532,838.565,1376.981z"/>
<path style="fill:#8ECCB9;" d="M776.182,1554.008c136.838,30.732,281.754,22.776,414.573-22.201
	c37.325-12.64,73.652-28.204,108.569-46.47c7.359-3.85,0.845-14.988-6.512-11.14c-121.652,63.639-260.5,92.478-397.451,83.927
	c-38.968-2.433-77.656-8.002-115.748-16.557C771.525,1539.752,768.072,1552.187,776.182,1554.008z"/>
<path style="fill:#B05F56;" d="M925.238,415.865c-0.982,0.032-1.942,0.148-2.933,0.148c-23.403,0-44.626-9.124-60.486-23.923
	c-15.227,87.359,7.067,182.864,7.067,182.864l0.031-0.04C917.39,516.016,925.556,453.171,925.238,415.865z"/>
<path style="fill:#B05F56;" d="M1204.078,416.013c-0.952,0-1.877-0.113-2.822-0.143c-0.317,37.308,7.851,100.15,56.321,159.045
	l0.011,0.014l0.02,0.025l0.01-0.041c0.183-0.785,22.237-95.889,7.042-182.909C1248.789,406.854,1227.527,416.013,1204.078,416.013z"
	/>
<path style="fill:#7A1E0F;" d="M962.679,505.445c2.754,1.611,7.397,0.882,8.826-2.314c3.838-8.586,12.126-15.058,21.327-15.56
	c9.607-0.523,18.848,4.706,23.559,13.303c3.991,7.283,15.135,0.781,11.14-6.511c-6.71-12.246-20.637-20.459-34.699-19.693
	c-13.738,0.748-26.812,9.301-32.466,21.949C958.945,499.798,959.445,503.554,962.679,505.445z"/>
<path style="fill:#7A1E0F;" d="M1100.18,505.445c2.753,1.611,7.396,0.882,8.825-2.314c3.839-8.586,12.126-15.058,21.327-15.56
	c9.607-0.523,18.848,4.706,23.559,13.303c3.99,7.283,15.135,0.781,11.14-6.511c-6.71-12.246-20.637-20.459-34.699-19.693
	c-13.738,0.748-26.812,9.301-32.466,21.949C1096.445,499.798,1096.945,503.554,1100.18,505.445z"/>
<path style="fill:#7A1E0F;" d="M922.306,416.013c0.99,0,1.951-0.116,2.933-0.148c20.003-0.655,38.335-7.856,52.872-19.627
	c20.091,24.744,50.724,40.58,85.082,40.58c34.357,0,64.991-15.836,85.082-40.58c14.563,11.794,32.936,19.001,52.982,19.633
	c0.945,0.03,1.87,0.143,2.822,0.143c23.449,0,44.712-9.159,60.581-24.01c17.311-16.2,28.193-39.185,28.193-64.764
	c0-49.028-39.745-88.773-88.773-88.773c-21.152,0-40.554,7.426-55.804,19.775c-20.091-24.744-50.725-40.579-85.082-40.579
	c-34.357,0-64.991,15.836-85.082,40.579c-15.25-12.349-34.652-19.775-55.804-19.775c-49.028,0-88.773,39.745-88.773,88.773
	c0,25.626,10.922,48.646,28.288,64.851C877.68,406.888,898.903,416.013,922.306,416.013z"/>
</svg>
